<svg width="22" height="22" viewBox="0 0 23 23" fill="none" xmlns="http://www.w3.org/2000/svg">
  <path
    d="M3.17917 12.0125C3.04625 11.8927 2.87045 11.8275 2.6888 11.8306C2.50715 11.8337 2.33383 11.9049 2.20537 12.0292C2.0769 12.1534 2.00331 12.3211 2.00011 12.4968C1.9969 12.6725 2.06433 12.8426 2.18819 12.9711L8.7324 19.3016C8.86387 19.4287 9.04208 19.5 9.22789 19.5C9.4137 19.5 9.59191 19.4287 9.72338 19.3016L22.8118 6.64066C22.9357 6.51208 23.0031 6.34202 22.9999 6.1663C22.9967 5.99058 22.9231 5.82293 22.7946 5.69866C22.6662 5.57439 22.4929 5.50321 22.3112 5.50011C22.1296 5.49701 21.9538 5.56223 21.8208 5.68204L9.22789 17.8637L3.17917 12.0125Z"
    fill="white" />
</svg>
