<svg xmlns="http://www.w3.org/2000/svg" width="20" height="20" fill="none">
  <g fill-rule="evenodd" clip-path="url(#customPrefix__icon-header-phone_svg__a)" clip-rule="evenodd">
    <path fill="#27C6B0" d="M10.116.958c4.485 0 8.126 3.648 8.126 8.143a.479.479 0 1 0 .956 0c0-5.023-4.07-9.101-9.082-9.101a.479.479 0 0 0 0 .958"/>
    <path fill="#27C6B0" d="M10.116 3.831a5.266 5.266 0 0 1 5.258 5.27.479.479 0 1 0 .956 0c0-3.437-2.785-6.227-6.214-6.227a.479.479 0 0 0 0 .957"/>
    <path fill="#27C6B0" d="M10.238 6.95a2.96 2.96 0 0 1 2.956 2.963.6.6 0 1 0 1.2 0 4.163 4.163 0 0 0-4.156-4.165.6.6 0 0 0 0 1.202"/>
    <path fill="#02836F" d="M4.589 1.264 6.69 3.41c.427.435.436 1.13.021 1.578L5.74 6.037a2.58 2.58 0 0 0-.686 1.75c0 .14.027.28.08.41l.386.962a7.8 7.8 0 0 0 4.67 4.457l1.212.422a2.24 2.24 0 0 0 1.91-.598l1.054-1.014a1.14 1.14 0 0 1 1.612.034l1.936 2.02c.409.427.425 1.096.037 1.542l-2.184 2.51a1.93 1.93 0 0 1-1.457.665h-.328a7 7 0 0 1-1.76-.225A16.74 16.74 0 0 1 .25 7.055l-.029-.11A6.7 6.7 0 0 1 0 5.236v-.321c0-.593.248-1.16.685-1.56l2.32-2.133a1.14 1.14 0 0 1 1.584.041"/>
  </g>
  <defs>
    <clipPath id="customPrefix__icon-header-phone_svg__a">
      <path fill="#fff" d="M0 0h19.197v19.197H0z"/>
    </clipPath>
  </defs>
</svg>
