<svg xmlns="http://www.w3.org/2000/svg" width="32" height="32" fill="none">
  <g fill-rule="evenodd" clip-path="url(#customPrefix__phone-icon-link_svg__a)" clip-rule="evenodd">
    <path fill="#27C6B0" d="M16.861 1.597c7.476 0 13.546 6.082 13.546 13.573a.798.798 0 1 0 1.593 0C32 6.798 25.217 0 16.861 0a.798.798 0 0 0 0 1.597"/>
    <path fill="#27C6B0" d="M16.861 6.387c4.837 0 8.765 3.936 8.765 8.783a.798.798 0 1 0 1.593 0c0-5.729-4.64-10.38-10.358-10.38a.798.798 0 0 0 0 1.597"/>
    <path fill="#27C6B0" d="M16.861 11.178a3.933 3.933 0 0 1 3.928 3.935.798.798 0 1 0 1.593 0c0-3.053-2.474-5.532-5.52-5.532a.798.798 0 0 0 0 1.597"/>
    <path fill="#02836F" d="m7.65 2.107 3.503 3.577c.712.726.728 1.885.036 2.63l-1.622 1.75a4.3 4.3 0 0 0-1.144 2.916c0 .235.045.468.132.685l.645 1.603a13 13 0 0 0 7.784 7.43l2.02.703a3.74 3.74 0 0 0 3.184-.996l1.758-1.69a1.9 1.9 0 0 1 2.687.054l3.227 3.37c.682.71.708 1.826.061 2.57l-3.64 4.184A3.22 3.22 0 0 1 23.85 32h-.546c-.99 0-1.976-.126-2.934-.375A27.9 27.9 0 0 1 .42 11.76l-.05-.184A11 11 0 0 1 0 8.73v-.536c0-.99.414-1.933 1.142-2.602l3.867-3.555a1.9 1.9 0 0 1 2.64.07"/>
  </g>
  <defs>
    <clipPath id="customPrefix__phone-icon-link_svg__a">
      <path fill="#fff" d="M0 0h32v32H0z"/>
    </clipPath>
  </defs>
</svg>
